<svg style="display: none;" xmlns="http://www.w3.org/2000/svg">
  <symbol id="arrow" viewBox="0 0 12 12">
    <g clip-path="url(#clip0_121_1079)">
      <path d="M1.495 3.69003C1.25 3.93503 1.25 4.33003 1.495 4.57503L5.65 8.73003C5.845 8.92503 6.16 8.92503 6.355 8.73003L10.51 4.57503C10.755 4.33003 10.755 3.93503 10.51 3.69003C10.265 3.44503 9.87 3.44503 9.625 3.69003L6 7.31003L2.375 3.68503C2.135 3.44503 1.735 3.44503 1.495 3.69003Z" fill="#9873FF"/>
    </g>
    <defs>
      <clipPath id="clip0_121_1079">
        <rect width="12" height="12" fill="white" transform="translate(0 12) rotate(-90)"/>
      </clipPath>
    </defs>
  </symbol>

  <symbol id="cross" viewBox="0 0 16 16">
    <path d="M8 2C4.682 2 2 4.682 2 8C2 11.318 4.682 14 8 14C11.318 14 14 11.318 14 8C14 4.682 11.318 2 8 2ZM8 12.8C5.354 12.8 3.2 10.646 3.2 8C3.2 5.354 5.354 3.2 8 3.2C10.646 3.2 12.8 5.354 12.8 8C12.8 10.646 10.646 12.8 8 12.8ZM10.154 5L8 7.154L5.846 5L5 5.846L7.154 8L5 10.154L5.846 11L8 8.846L10.154 11L11 10.154L8.846 8L11 5.846L10.154 5Z"/>
  </symbol>

  <symbol id="addClientNonHovered" viewBox="0 0 16 16">
    <path class="non-hovered" d="M8.00001 4.66667C7.63334 4.66667 7.33334 4.96667 7.33334 5.33333V7.33333H5.33334C4.96668 7.33333 4.66668 7.63333 4.66668 8C4.66668 8.36667 4.96668 8.66667 5.33334 8.66667H7.33334V10.6667C7.33334 11.0333 7.63334 11.3333 8.00001 11.3333C8.36668 11.3333 8.66668 11.0333 8.66668 10.6667V8.66667H10.6667C11.0333 8.66667 11.3333 8.36667 11.3333 8C11.3333 7.63333 11.0333 7.33333 10.6667 7.33333H8.66668V5.33333C8.66668 4.96667 8.36668 4.66667 8.00001 4.66667ZM8.00001 1.33333C4.32001 1.33333 1.33334 4.32 1.33334 8C1.33334 11.68 4.32001 14.6667 8.00001 14.6667C11.68 14.6667 14.6667 11.68 14.6667 8C14.6667 4.32 11.68 1.33333 8.00001 1.33333ZM8.00001 13.3333C5.06001 13.3333 2.66668 10.94 2.66668 8C2.66668 5.06 5.06001 2.66667 8.00001 2.66667C10.94 2.66667 13.3333 5.06 13.3333 8C13.3333 10.94 10.94 13.3333 8.00001 13.3333Z"/>
  </symbol>

  <symbol id="addClientHovered" viewBox="0 0 16 16">
    <path class="hovered" fill-rule="evenodd" clip-rule="evenodd" d="M1.33331 8.00016C1.33331 4.32016 4.31998 1.3335 7.99998 1.3335C11.68 1.3335 14.6666 4.32016 14.6666 8.00016C14.6666 11.6802 11.68 14.6668 7.99998 14.6668C4.31998 14.6668 1.33331 11.6802 1.33331 8.00016ZM7.33329 5.33366C7.33329 4.96699 7.63329 4.66699 7.99996 4.66699C8.36663 4.66699 8.66663 4.96699 8.66663 5.33366V7.33366H10.6666C11.0333 7.33366 11.3333 7.63366 11.3333 8.00033C11.3333 8.36699 11.0333 8.66699 10.6666 8.66699H8.66663V10.667C8.66663 11.0337 8.36663 11.3337 7.99996 11.3337C7.63329 11.3337 7.33329 11.0337 7.33329 10.667V8.66699H5.33329C4.96663 8.66699 4.66663 8.36699 4.66663 8.00033C4.66663 7.63366 4.96663 7.33366 5.33329 7.33366H7.33329V5.33366Z"/>
  </symbol>
</svg>
